# xmcd
#
# Track frame offsets:
#	150
#	18105
#	36399
#	57681
#	85073
#	100843
#	110029
#	124899
#	139182
#	163120
#	179340
#	196000
#	216522
#	234096
#	245953
#	266738
#	291708
#
# Disc length: 4348 seconds
#
# Revision: 1
# Processed by: cddbd v1.5.2PL0 Copyright (c) Steve Scherf et al.
# Submitted via: audiograbber 1.83.01
#
DISCID=0910fa11
DTITLE=Mike Reilly Band - Reily's Road
DYEAR=2010
DGENRE=Blues
TTITLE0=Who's Been Sleeping In My Bed
TTITLE1=Bang, Bang, Bang
TTITLE2=Skunked
TTITLE3=Black Widow
TTITLE4=Caught In The Act
TTITLE5=Just A Little Bit
TTITLE6=I Forget To Forget You
TTITLE7=Pretty Girls
TTITLE8=Back on the Road to Texas
TTITLE9=Love To Play The Blues
TTITLE10=Nothing But The Blues
TTITLE11=Never Too Hot
TTITLE12=Best I Ever Knew
TTITLE13=Lefty's Bar and Grill
TTITLE14=Lamar's Tune
TTITLE15=Hot Lanta
TTITLE16=Goin' Down Slow
EXTD=
EXTT0=
EXTT1=
EXTT2=
EXTT3=
EXTT4=
EXTT5=
EXTT6=
EXTT7=
EXTT8=
EXTT9=
EXTT10=
EXTT11=
EXTT12=
EXTT13=
EXTT14=
EXTT15=
EXTT16=
PLAYORDER=
